<?xml version="1.0" standalone="no"?>
<!DOCTYPE svg PUBLIC "-//W3C//DTD SVG 20010904//EN"
 "http://www.w3.org/TR/2001/REC-SVG-20010904/DTD/svg10.dtd">
<svg version="1.0" xmlns="http://www.w3.org/2000/svg"
 width="600.000000pt" height="488.000000pt" viewBox="0 0 600.000000 488.000000"
 preserveAspectRatio="xMidYMid meet">

<g transform="translate(0.000000,488.000000) scale(0.100000,-0.100000)"
fill="#000000" stroke="none">
<path d="M75 4798 c-3 -24 -5 -106 -3 -183 l3 -140 185 -5 c180 -5 186 -6 226
-32 95 -62 164 -191 180 -338 2 -19 5 -51 8 -70 2 -19 5 -330 7 -691 1 -361 5
-680 10 -707 4 -28 10 -77 14 -109 9 -89 11 -100 39 -228 72 -336 258 -622
499 -768 42 -26 77 -44 77 -42 0 3 15 -4 33 -14 106 -59 464 -155 662 -176 33
-4 71 -9 85 -11 14 -2 79 -8 145 -14 104 -8 122 -12 137 -31 16 -19 18 -54 18
-405 l0 -384 -299 0 -298 0 -7 -52 c-8 -68 -8 -256 0 -297 l7 -31 1221 2 1221
3 3 187 2 188 -307 2 -308 3 0 400 0 400 75 7 c395 39 581 73 795 148 354 122
580 330 709 652 33 84 78 235 91 308 4 19 14 73 22 120 13 69 17 221 24 825 4
407 12 767 17 800 22 137 57 223 115 283 61 62 104 72 314 72 l173 0 0 185 0
185 -518 0 c-427 0 -528 -3 -575 -15 -205 -53 -339 -215 -405 -486 -12 -46
-24 -113 -27 -149 -4 -36 -9 -78 -11 -95 -3 -16 -9 -343 -13 -725 -5 -382 -11
-706 -15 -720 -3 -14 -10 -50 -16 -80 -15 -87 -18 -102 -45 -195 -65 -224
-196 -468 -292 -542 -54 -42 -139 -88 -198 -107 -94 -30 -210 -55 -217 -48 -5
5 -7 633 -6 1398 l3 1389 305 5 305 5 3 183 2 182 -1223 0 -1224 0 -7 -52 c-8
-68 -8 -246 0 -287 l6 -31 286 -2 286 -3 13 -25 c16 -32 19 -2760 3 -2760 -5
0 -54 14 -107 31 -361 115 -546 341 -627 764 -13 72 -18 104 -32 231 -3 21 -9
354 -13 739 -5 409 -13 729 -20 770 -54 346 -190 543 -423 609 -48 14 -127 16
-571 16 l-516 0 -6 -42z"/>
</g>
</svg>
